<svg xmlns="http://www.w3.org/2000/svg" width="1180" height="583" viewBox="0 0 1180 583" font-family="ui-monospace,SFMono-Regular,Menlo,Consolas,'Liberation Mono',monospace" role="img" aria-label="Projects">
<rect width="1180" height="583" fill="#0A0A0A"/>
<defs>
<linearGradient id="acc_line" x1="0" y1="0" x2="1" y2="0">
  <stop offset="0" stop-color="#00FF41">
    <animate attributeName="stop-color" values="#00FF41;#00CC33;#00FF41" dur="10s" repeatCount="indefinite"/>
  </stop>
  <stop offset="1" stop-color="#00CC33">
    <animate attributeName="stop-color" values="#00CC33;#00FF41;#00CC33" dur="10s" repeatCount="indefinite"/>
  </stop>
</linearGradient>
</defs>
<text x="7" y="18" font-size="11" letter-spacing="2" fill="#00FF41">PROJECTS.LIST</text>
<text x="135" y="18" font-size="10" fill="#475569">./projects.sh --all</text>
<line x1="5" y1="28" x2="1175" y2="28" stroke="url(#acc_line)" stroke-width="1.5" opacity="0.7"/>
<a href="https://github.com/MdKasif0/GitRoasted" target="_blank">
<g opacity="0" transform="translate(5,42)">
<animate attributeName="opacity" from="0" to="1" dur="0.5s" begin="0.25s" fill="freeze"/>
<rect width="578" height="168" rx="12" fill="#111111" stroke="rgba(0,255,65,0.28)"><animate attributeName="stroke" values="rgba(0,255,65,0.22);rgba(0,255,65,0.5);rgba(0,255,65,0.22)" dur="4.5s" begin="0.25s" repeatCount="indefinite"/></rect>
<rect width="578" height="30" rx="12" fill="#0D0D0D"/>
<rect y="18" width="578" height="12" fill="#0D0D0D"/>
<line x1="0" y1="30" x2="578" y2="30" stroke="rgba(255,255,255,0.08)"/>
<text x="16" y="19" font-size="10" fill="#94A3B8"><tspan fill="#00FF41">&#8226;</tspan> MdKasif0/GitRoasted</text>
<circle cx="562" cy="15" r="3.5" fill="#00FF41"><animate attributeName="opacity" values="1;0.25;1" dur="1.8s" repeatCount="indefinite"/></circle>
<text x="16" y="63" font-size="22" font-weight="700" fill="#F8FAFC" font-family="ui-monospace,SFMono-Regular,Menlo,monospace">GitRoasted<tspan fill="#00FF41" font-weight="400">_</tspan></text>
<text x="16" y="82" font-size="12" fill="#94A3B8">Analyze, Roast &amp; Rank Your GitHub Profile</text>
<circle cx="340" cy="59" r="3" fill="#3178C6"/>
<text x="348" y="62" font-size="10" fill="#94A3B8">TypeScript 96%</text>
<circle cx="340" cy="75" r="3" fill="#563D7C"/>
<text x="348" y="78" font-size="10" fill="#94A3B8">CSS 3%</text>
<circle cx="340" cy="91" r="3" fill="#6B7280"/>
<text x="348" y="94" font-size="10" fill="#94A3B8">Nix 1%</text>
<circle cx="533" cy="72" r="25" fill="#1a1a1a" stroke="rgba(0,255,65,0.1)" stroke-width="1"/>
<path d="M533.0,47.0 A25,25 0 1 1 526.8,47.8 L529.0,56.5 A16,16 0 1 0 533.0,56.0 Z" fill="#3178C6" opacity="0.85"/>
<path d="M526.8,47.8 A25,25 0 0 1 531.4,47.0 L532.0,56.0 A16,16 0 0 0 529.0,56.5 Z" fill="#563D7C" opacity="0.85"/>
<path d="M531.4,47.0 A25,25 0 0 1 533.0,47.0 L533.0,56.0 A16,16 0 0 0 532.0,56.0 Z" fill="#6B7280" opacity="0.85"/>
<text x="533" y="77" text-anchor="middle" font-size="14" font-weight="700" fill="#F8FAFC">96%</text>
<rect x="16" y="110" width="79" height="20" rx="4" fill="#3178C6" opacity="0.7"/><text x="56" y="124" text-anchor="middle" font-size="10" font-weight="600" fill="#F8FAFC">TypeScript</text>
<rect x="101.0" y="110" width="60" height="20" rx="4" fill="#000000" opacity="0.7"/><text x="131" y="124" text-anchor="middle" font-size="10" font-weight="600" fill="#F8FAFC">Next.js</text>
<rect x="166.5" y="110" width="27" height="20" rx="4" fill="#00FF41" opacity="0.7"/><text x="180" y="124" text-anchor="middle" font-size="10" font-weight="600" fill="#F8FAFC">AI</text>
<text x="16" y="152" font-size="10" fill="#475569"><tspan fill="#00FF41">★</tspan> 19  updated 1d ago</text>
</g></a>
<a href="https://github.com/MdKasif0/black-hole-blender" target="_blank">
<g opacity="0" transform="translate(592,42)">
<animate attributeName="opacity" from="0" to="1" dur="0.5s" begin="0.43s" fill="freeze"/>
<rect width="578" height="168" rx="12" fill="#111111" stroke="rgba(0,255,65,0.28)"><animate attributeName="stroke" values="rgba(0,255,65,0.22);rgba(0,255,65,0.5);rgba(0,255,65,0.22)" dur="4.5s" begin="0.43s" repeatCount="indefinite"/></rect>
<rect width="578" height="30" rx="12" fill="#0D0D0D"/>
<rect y="18" width="578" height="12" fill="#0D0D0D"/>
<line x1="0" y1="30" x2="578" y2="30" stroke="rgba(255,255,255,0.08)"/>
<text x="16" y="19" font-size="10" fill="#94A3B8"><tspan fill="#00FF41">&#8226;</tspan> MdKasif0/black-hole-blender</text>
<circle cx="562" cy="15" r="3.5" fill="#00FF41"><animate attributeName="opacity" values="1;0.25;1" dur="1.8s" repeatCount="indefinite"/></circle>
<text x="16" y="63" font-size="22" font-weight="700" fill="#F8FAFC" font-family="ui-monospace,SFMono-Regular,Menlo,monospace">BlackHole Blender<tspan fill="#00FF41" font-weight="400">_</tspan></text>
<text x="16" y="82" font-size="12" fill="#94A3B8">Black hole visualization in Blender with Python</text>
<circle cx="340" cy="59" r="3" fill="#3776AB"/>
<text x="348" y="62" font-size="10" fill="#94A3B8">Python 100%</text>
<circle cx="533" cy="72" r="25" fill="#1a1a1a" stroke="rgba(0,255,65,0.1)" stroke-width="1"/>
<path d="M533.0,47.0 A25,25 0 1 1 533.0,47.0 L533.0,56.0 A16,16 0 1 0 533.0,56.0 Z" fill="#3776AB" opacity="0.85"/>
<text x="533" y="77" text-anchor="middle" font-size="14" font-weight="700" fill="#F8FAFC">100%</text>
<rect x="16" y="110" width="53" height="20" rx="4" fill="#3776AB" opacity="0.7"/><text x="42" y="124" text-anchor="middle" font-size="10" font-weight="600" fill="#F8FAFC">Python</text>
<rect x="75.0" y="110" width="60" height="20" rx="4" fill="#F5792A" opacity="0.7"/><text x="105" y="124" text-anchor="middle" font-size="10" font-weight="600" fill="#F8FAFC">Blender</text>
<rect x="140.5" y="110" width="27" height="20" rx="4" fill="#333" opacity="0.7"/><text x="154" y="124" text-anchor="middle" font-size="10" font-weight="600" fill="#F8FAFC">3D</text>
<text x="16" y="152" font-size="10" fill="#475569"><tspan fill="#00FF41">★</tspan> 1  updated 1w ago</text>
</g></a>
<a href="https://github.com/MdKasif0/AI-Checkers-Arena" target="_blank">
<g opacity="0" transform="translate(5,219)">
<animate attributeName="opacity" from="0" to="1" dur="0.5s" begin="0.61s" fill="freeze"/>
<rect width="578" height="168" rx="12" fill="#111111" stroke="rgba(0,255,65,0.28)"><animate attributeName="stroke" values="rgba(0,255,65,0.22);rgba(0,255,65,0.5);rgba(0,255,65,0.22)" dur="4.5s" begin="0.61s" repeatCount="indefinite"/></rect>
<rect width="578" height="30" rx="12" fill="#0D0D0D"/>
<rect y="18" width="578" height="12" fill="#0D0D0D"/>
<line x1="0" y1="30" x2="578" y2="30" stroke="rgba(255,255,255,0.08)"/>
<text x="16" y="19" font-size="10" fill="#94A3B8"><tspan fill="#00FF41">&#8226;</tspan> MdKasif0/AI-Checkers-Arena</text>
<circle cx="562" cy="15" r="3.5" fill="#00FF41"><animate attributeName="opacity" values="1;0.25;1" dur="1.8s" repeatCount="indefinite"/></circle>
<text x="16" y="63" font-size="22" font-weight="700" fill="#F8FAFC" font-family="ui-monospace,SFMono-Regular,Menlo,monospace">AI Checkers Arena<tspan fill="#00FF41" font-weight="400">_</tspan></text>
<text x="16" y="82" font-size="12" fill="#94A3B8">AI-powered checkers game with smart opponents</text>
<circle cx="340" cy="59" r="3" fill="#3178C6"/>
<text x="348" y="62" font-size="10" fill="#94A3B8">TypeScript 93%</text>
<circle cx="340" cy="75" r="3" fill="#563D7C"/>
<text x="348" y="78" font-size="10" fill="#94A3B8">CSS 6%</text>
<circle cx="340" cy="91" r="3" fill="#F7DF1E"/>
<text x="348" y="94" font-size="10" fill="#94A3B8">JavaScript 1%</text>
<circle cx="533" cy="72" r="25" fill="#1a1a1a" stroke="rgba(0,255,65,0.1)" stroke-width="1"/>
<path d="M533.0,47.0 A25,25 0 1 1 522.4,49.4 L526.2,57.5 A16,16 0 1 0 533.0,56.0 Z" fill="#3178C6" opacity="0.85"/>
<path d="M522.4,49.4 A25,25 0 0 1 531.4,47.0 L532.0,56.0 A16,16 0 0 0 526.2,57.5 Z" fill="#563D7C" opacity="0.85"/>
<path d="M531.4,47.0 A25,25 0 0 1 533.0,47.0 L533.0,56.0 A16,16 0 0 0 532.0,56.0 Z" fill="#F7DF1E" opacity="0.85"/>
<text x="533" y="77" text-anchor="middle" font-size="14" font-weight="700" fill="#F8FAFC">93%</text>
<rect x="16" y="110" width="79" height="20" rx="4" fill="#3178C6" opacity="0.7"/><text x="56" y="124" text-anchor="middle" font-size="10" font-weight="600" fill="#F8FAFC">TypeScript</text>
<rect x="101.0" y="110" width="27" height="20" rx="4" fill="#00FF41" opacity="0.7"/><text x="114" y="124" text-anchor="middle" font-size="10" font-weight="600" fill="#F8FAFC">AI</text>
<rect x="134.0" y="110" width="40" height="20" rx="4" fill="#333" opacity="0.7"/><text x="154" y="124" text-anchor="middle" font-size="10" font-weight="600" fill="#F8FAFC">Game</text>
<text x="16" y="152" font-size="10" fill="#475569"><tspan fill="#00FF41">★</tspan> 1  updated 3w ago</text>
</g></a>
<a href="https://github.com/MdKasif0/Black-Hole-Gravitational-Lensing" target="_blank">
<g opacity="0" transform="translate(592,219)">
<animate attributeName="opacity" from="0" to="1" dur="0.5s" begin="0.79s" fill="freeze"/>
<rect width="578" height="168" rx="12" fill="#111111" stroke="rgba(0,255,65,0.28)"><animate attributeName="stroke" values="rgba(0,255,65,0.22);rgba(0,255,65,0.5);rgba(0,255,65,0.22)" dur="4.5s" begin="0.79s" repeatCount="indefinite"/></rect>
<rect width="578" height="30" rx="12" fill="#0D0D0D"/>
<rect y="18" width="578" height="12" fill="#0D0D0D"/>
<line x1="0" y1="30" x2="578" y2="30" stroke="rgba(255,255,255,0.08)"/>
<text x="16" y="19" font-size="10" fill="#94A3B8"><tspan fill="#00FF41">&#8226;</tspan> MdKasif0/Black-Hole-Gravitational-Lensing</text>
<circle cx="562" cy="15" r="3.5" fill="#00FF41"><animate attributeName="opacity" values="1;0.25;1" dur="1.8s" repeatCount="indefinite"/></circle>
<text x="16" y="63" font-size="22" font-weight="700" fill="#F8FAFC" font-family="ui-monospace,SFMono-Regular,Menlo,monospace">BH Lensing<tspan fill="#00FF41" font-weight="400">_</tspan></text>
<text x="16" y="82" font-size="12" fill="#94A3B8">Black Hole Gravitational Lensing Simulation</text>
<circle cx="340" cy="59" r="3" fill="#3178C6"/>
<text x="348" y="62" font-size="10" fill="#94A3B8">TypeScript 94%</text>
<circle cx="340" cy="75" r="3" fill="#563D7C"/>
<text x="348" y="78" font-size="10" fill="#94A3B8">CSS 5%</text>
<circle cx="340" cy="91" r="3" fill="#E34C26"/>
<text x="348" y="94" font-size="10" fill="#94A3B8">HTML 1%</text>
<circle cx="533" cy="72" r="25" fill="#1a1a1a" stroke="rgba(0,255,65,0.1)" stroke-width="1"/>
<path d="M533.0,47.0 A25,25 0 1 1 523.8,48.8 L527.1,57.1 A16,16 0 1 0 533.0,56.0 Z" fill="#3178C6" opacity="0.85"/>
<path d="M523.8,48.8 A25,25 0 0 1 531.4,47.0 L532.0,56.0 A16,16 0 0 0 527.1,57.1 Z" fill="#563D7C" opacity="0.85"/>
<path d="M531.4,47.0 A25,25 0 0 1 533.0,47.0 L533.0,56.0 A16,16 0 0 0 532.0,56.0 Z" fill="#E34C26" opacity="0.85"/>
<text x="533" y="77" text-anchor="middle" font-size="14" font-weight="700" fill="#F8FAFC">94%</text>
<rect x="16" y="110" width="79" height="20" rx="4" fill="#3178C6" opacity="0.7"/><text x="56" y="124" text-anchor="middle" font-size="10" font-weight="600" fill="#F8FAFC">TypeScript</text>
<rect x="101.0" y="110" width="60" height="20" rx="4" fill="#333" opacity="0.7"/><text x="131" y="124" text-anchor="middle" font-size="10" font-weight="600" fill="#F8FAFC">Physics</text>
<rect x="166.5" y="110" width="46" height="20" rx="4" fill="#990000" opacity="0.7"/><text x="190" y="124" text-anchor="middle" font-size="10" font-weight="600" fill="#F8FAFC">WebGL</text>
<text x="16" y="152" font-size="10" fill="#475569"><tspan fill="#00FF41">★</tspan> 1  updated 2w ago</text>
</g></a>
<a href="https://github.com/MdKasif0/Barakah" target="_blank">
<g opacity="0" transform="translate(5,396)">
<animate attributeName="opacity" from="0" to="1" dur="0.5s" begin="0.97s" fill="freeze"/>
<rect width="578" height="168" rx="12" fill="#111111" stroke="rgba(0,255,65,0.28)"><animate attributeName="stroke" values="rgba(0,255,65,0.22);rgba(0,255,65,0.5);rgba(0,255,65,0.22)" dur="4.5s" begin="0.97s" repeatCount="indefinite"/></rect>
<rect width="578" height="30" rx="12" fill="#0D0D0D"/>
<rect y="18" width="578" height="12" fill="#0D0D0D"/>
<line x1="0" y1="30" x2="578" y2="30" stroke="rgba(255,255,255,0.08)"/>
<text x="16" y="19" font-size="10" fill="#94A3B8"><tspan fill="#00FF41">&#8226;</tspan> MdKasif0/Barakah</text>
<circle cx="562" cy="15" r="3.5" fill="#00FF41"><animate attributeName="opacity" values="1;0.25;1" dur="1.8s" repeatCount="indefinite"/></circle>
<text x="16" y="63" font-size="22" font-weight="700" fill="#F8FAFC" font-family="ui-monospace,SFMono-Regular,Menlo,monospace">Barakah<tspan fill="#00FF41" font-weight="400">_</tspan></text>
<text x="16" y="82" font-size="12" fill="#94A3B8">Premium Islamic lifestyle web app for modern ...</text>
<circle cx="340" cy="59" r="3" fill="#3178C6"/>
<text x="348" y="62" font-size="10" fill="#94A3B8">TypeScript 94%</text>
<circle cx="340" cy="75" r="3" fill="#F7DF1E"/>
<text x="348" y="78" font-size="10" fill="#94A3B8">JavaScript 5%</text>
<circle cx="340" cy="91" r="3" fill="#563D7C"/>
<text x="348" y="94" font-size="10" fill="#94A3B8">CSS 1%</text>
<circle cx="533" cy="72" r="25" fill="#1a1a1a" stroke="rgba(0,255,65,0.1)" stroke-width="1"/>
<path d="M533.0,47.0 A25,25 0 1 1 523.8,48.8 L527.1,57.1 A16,16 0 1 0 533.0,56.0 Z" fill="#3178C6" opacity="0.85"/>
<path d="M523.8,48.8 A25,25 0 0 1 531.4,47.0 L532.0,56.0 A16,16 0 0 0 527.1,57.1 Z" fill="#F7DF1E" opacity="0.85"/>
<path d="M531.4,47.0 A25,25 0 0 1 533.0,47.0 L533.0,56.0 A16,16 0 0 0 532.0,56.0 Z" fill="#563D7C" opacity="0.85"/>
<text x="533" y="77" text-anchor="middle" font-size="14" font-weight="700" fill="#F8FAFC">94%</text>
<rect x="16" y="110" width="79" height="20" rx="4" fill="#3178C6" opacity="0.7"/><text x="56" y="124" text-anchor="middle" font-size="10" font-weight="600" fill="#F8FAFC">TypeScript</text>
<rect x="101.0" y="110" width="46" height="20" rx="4" fill="#333" opacity="0.7"/><text x="124" y="124" text-anchor="middle" font-size="10" font-weight="600" fill="#F8FAFC">React</text>
<rect x="153.5" y="110" width="60" height="20" rx="4" fill="#000000" opacity="0.7"/><text x="183" y="124" text-anchor="middle" font-size="10" font-weight="600" fill="#F8FAFC">Next.js</text>
<text x="16" y="152" font-size="10" fill="#475569"><tspan fill="#00FF41">★</tspan> 1  updated 9mo ago</text>
</g></a>
<a href="https://github.com/MdKasif0/ReadOn" target="_blank">
<g opacity="0" transform="translate(592,396)">
<animate attributeName="opacity" from="0" to="1" dur="0.5s" begin="1.15s" fill="freeze"/>
<rect width="578" height="168" rx="12" fill="#111111" stroke="rgba(0,255,65,0.28)"><animate attributeName="stroke" values="rgba(0,255,65,0.22);rgba(0,255,65,0.5);rgba(0,255,65,0.22)" dur="4.5s" begin="1.15s" repeatCount="indefinite"/></rect>
<rect width="578" height="30" rx="12" fill="#0D0D0D"/>
<rect y="18" width="578" height="12" fill="#0D0D0D"/>
<line x1="0" y1="30" x2="578" y2="30" stroke="rgba(255,255,255,0.08)"/>
<text x="16" y="19" font-size="10" fill="#94A3B8"><tspan fill="#00FF41">&#8226;</tspan> MdKasif0/ReadOn</text>
<circle cx="562" cy="15" r="3.5" fill="#00FF41"><animate attributeName="opacity" values="1;0.25;1" dur="1.8s" repeatCount="indefinite"/></circle>
<text x="16" y="63" font-size="22" font-weight="700" fill="#F8FAFC" font-family="ui-monospace,SFMono-Regular,Menlo,monospace">ReadOn<tspan fill="#00FF41" font-weight="400">_</tspan></text>
<text x="16" y="82" font-size="12" fill="#94A3B8">Modern reading list and book tracking web app...</text>
<circle cx="340" cy="59" r="3" fill="#3178C6"/>
<text x="348" y="62" font-size="10" fill="#94A3B8">TypeScript 97%</text>
<circle cx="340" cy="75" r="3" fill="#563D7C"/>
<text x="348" y="78" font-size="10" fill="#94A3B8">CSS 1%</text>
<circle cx="340" cy="91" r="3" fill="#E34C26"/>
<text x="348" y="94" font-size="10" fill="#94A3B8">HTML 1%</text>
<circle cx="340" cy="107" r="3" fill="#F7DF1E"/>
<text x="348" y="110" font-size="10" fill="#94A3B8">JavaScript 1%</text>
<circle cx="533" cy="72" r="25" fill="#1a1a1a" stroke="rgba(0,255,65,0.1)" stroke-width="1"/>
<path d="M533.0,47.0 A25,25 0 1 1 528.3,47.4 L530.0,56.3 A16,16 0 1 0 533.0,56.0 Z" fill="#3178C6" opacity="0.85"/>
<path d="M528.3,47.4 A25,25 0 0 1 529.9,47.2 L531.0,56.1 A16,16 0 0 0 530.0,56.3 Z" fill="#563D7C" opacity="0.85"/>
<path d="M529.9,47.2 A25,25 0 0 1 531.4,47.0 L532.0,56.0 A16,16 0 0 0 531.0,56.1 Z" fill="#E34C26" opacity="0.85"/>
<path d="M531.4,47.0 A25,25 0 0 1 533.0,47.0 L533.0,56.0 A16,16 0 0 0 532.0,56.0 Z" fill="#F7DF1E" opacity="0.85"/>
<text x="533" y="77" text-anchor="middle" font-size="14" font-weight="700" fill="#F8FAFC">97%</text>
<rect x="16" y="110" width="79" height="20" rx="4" fill="#3178C6" opacity="0.7"/><text x="56" y="124" text-anchor="middle" font-size="10" font-weight="600" fill="#F8FAFC">TypeScript</text>
<rect x="101.0" y="110" width="46" height="20" rx="4" fill="#333" opacity="0.7"/><text x="124" y="124" text-anchor="middle" font-size="10" font-weight="600" fill="#F8FAFC">React</text>
<rect x="153.5" y="110" width="66" height="20" rx="4" fill="#FFCA28" opacity="0.7"/><text x="186" y="124" text-anchor="middle" font-size="10" font-weight="600" fill="#F8FAFC">Firebase</text>
<text x="16" y="152" font-size="10" fill="#475569"><tspan fill="#00FF41">★</tspan> 1  updated 11mo ago</text>
</g></a>
</svg>